<?xml version="1.0" encoding="iso-8859-1"?>
<!-- Generator: Adobe Illustrator 19.0.0, SVG Export Plug-In . SVG Version: 6.00 Build 0)  -->
<svg version="1.1" id="Layer_1" xmlns="http://www.w3.org/2000/svg" xmlns:xlink="http://www.w3.org/1999/xlink" x="0px" y="0px"
	 viewBox="0 0 512.03 512.03" style="enable-background:new 0 0 512.03 512.03;" xml:space="preserve">
<path style="fill:#9B9B9B;" d="M327.215,163.2c0-89.6-73.6-163.2-164-163.2S0.015,73.6,0.015,163.2s73.6,163.2,163.2,163.2
	c10.4,0,20.8-0.8,30.4-3.2l66.4,52.8v-80.8C300.815,264.8,327.215,217.6,327.215,163.2z"/>
<g>
	<circle style="fill:#FFFFFF;" cx="252.015" cy="157.6" r="27.2"/>
	<circle style="fill:#FFFFFF;" cx="163.215" cy="157.6" r="27.2"/>
	<circle style="fill:#FFFFFF;" cx="75.215" cy="157.6" r="27.2"/>
</g>
<g>
	<circle style="fill:#9B9B9B;" cx="403.215" cy="308.8" r="63.2"/>
	<path style="fill:#9B9B9B;" d="M512.015,512c0,0,0,3.2,0-56s-64-60-64-60h-89.6c0,0-64,0.8-64,60c0,58.4,0,56,0,56H512.015z"/>
</g>
<g>
</g>
<g>
</g>
<g>
</g>
<g>
</g>
<g>
</g>
<g>
</g>
<g>
</g>
<g>
</g>
<g>
</g>
<g>
</g>
<g>
</g>
<g>
</g>
<g>
</g>
<g>
</g>
<g>
</g>
</svg>
